<?xml version="1.0" encoding="UTF-8"?>
<svg enable-background="new 0 0 366 150" version="1.1" viewBox="0 0 366 150" xml:space="preserve" xmlns="http://www.w3.org/2000/svg">
<style type="text/css">
.st0{fill:#231F20;}
.st1{filter:url(#b);}
.st2{fill:#FFFFFF;}
.st3{mask:url(#a);fill:#231F20;}
.st4{fill:#3A58A7;}
.st5{fill:#292664;}
</style>
<path class="st0" d="m162.1 78.8h27.4c-1.8-6.2-6.5-9.9-13.4-9.9-7.2-0.1-11.8 3.2-14 9.9m46.3 14.1h-46.1c2.3 6.8 7.6 10.2 15.8 10.2 7.1 0 13.6-2 19.5-6l8.1 13.9c-8.3 6-17.8 8.9-28.5 8.9-11.5 0-20.2-3.3-26.4-9.7-6.2-6.5-9.2-14.5-9.2-24 0-9.7 3.2-17.8 9.6-24.2s14.7-9.7 24.9-9.7c9.6 0 17.5 2.9 23.7 8.7 6.2 5.7 9.4 13.7 9.4 23.6-0.1 2.7-0.3 5.4-0.8 8.3"/>
<path class="st0" d="m225.6 110.5c-6.3-6.3-9.5-14.4-9.5-24.3s3.2-18 9.6-24.3 14.7-9.5 25-9.5c13.4 0 25.3 6.5 30.8 18.8l-16.5 8.6c-3.3-5.5-7.8-8.3-13.8-8.3-4.3 0-7.8 1.4-10.6 4.2-2.7 2.8-4.1 6.3-4.1 10.4 0 8.5 6.2 14.8 14.5 14.8 6 0 11.5-3.3 13.8-8.3l16.5 9.8c-5.6 10.8-17.2 17.4-30.9 17.4-10.2 0.1-18.4-3-24.8-9.3"/>
<g transform="translate(93 .6978)">
<defs>
<filter id="b" x=".9" y="30.4" width="39.1" height="89.1" filterUnits="userSpaceOnUse">
<feColorMatrix values="1 0 0 0 0  0 1 0 0 0  0 0 1 0 0  0 0 0 1 0"/>
</filter>
</defs>
<mask id="a" x="0.9" y="30.4" width="39.1" height="89.1" maskUnits="userSpaceOnUse">
<g class="st1">
<polygon class="st2" points="0.9 30.4 40 30.4 40 119.5 0.9 119.5"/>
</g>
</mask>
<path class="st3" d="m29.8 100.7c-5.5 0-8.2-3.4-8.2-10.3v-60l-20.4 4.5v18.4l-0.3 17.1v22.5c0 17.8 8 26.7 24 26.7 5.5 0 10.5-0.9 15.1-2.6v-19.3c-3.8 2-7.2 3-10.2 3"/>
</g>
<path class="st0" d="m355.2 78.9c0-8.5-2.5-15.2-7.2-19.8-4.8-4.6-10.8-6.9-17.7-6.9-9.4 0-17.1 4.8-20.2 10.5v-33.2l-20.1 4.4v84.6h20.6v-33.6c0-8.3 5.1-13.8 12.6-13.8 7 0 11.3 4.9 11.3 13.3v11.6l20.7-4.6v-12.5z"/>
<path class="st4" d="m355.2 108c0 5.8-4.7 10.5-10.5 10.5s-10.5-4.7-10.5-10.5 4.7-10.5 10.5-10.5 10.5 4.7 10.5 10.5"/>
<polygon class="st4" points="43.4 115.8 51.3 86.2 21.7 94.1"/>
<polygon class="st4" points="0 72.4 21.7 94.1 29.6 64.5"/>
<polygon class="st4" points="37.6 34.9 29.6 64.5 59.2 56.6"/>
<polygon class="st4" points="59.2 56.6 51.3 86.2 80.9 78.2"/>
<polygon class="st5" points="29.6 64.5 21.7 94.1 51.3 86.2 59.2 56.6"/>
<polygon class="st4" points="88.1 69.4 114.2 65.1 88 60.9"/>
<polygon class="st4" points="87.9 52.4 88 60.9 114.2 56.6"/>
<polygon class="st4" points="140.4 60.9 114.2 65.1 140.5 69.4"/>
<polygon class="st4" points="140.4 52.4 114.2 56.6 140.4 60.9"/>
<polygon class="st5" points="114.2 56.6 88 60.9 114.2 65.1 140.4 60.9"/>
</svg>
