<?xml version="1.0" encoding="UTF-8"?>
<svg viewBox="0 0 356 91" xmlns="http://www.w3.org/2000/svg" xmlns:xlink="http://www.w3.org/1999/xlink">
<defs>
<polygon id="a" points="0.9198 0.9013 39.973 0.9013 39.973 90 0.9198 90"/>
</defs>
<g fill="none" fill-rule="evenodd">
<path d="m162.09 49.306h27.36c-1.754-6.198-6.548-9.939-13.446-9.939-7.133 0-11.693 3.273-13.914 9.939m46.302 14.148h-46.069c2.339 6.783 7.601 10.173 15.786 10.173 7.132 0 13.563-1.987 19.526-5.963l8.068 13.914c-8.302 5.963-17.773 8.887-28.53 8.887-11.459 0-20.229-3.274-26.426-9.705-6.197-6.548-9.237-14.499-9.237-23.971 0-9.705 3.157-17.773 9.588-24.204s14.733-9.705 24.906-9.705c9.587 0 17.539 2.924 23.736 8.653 6.197 5.73 9.354 13.681 9.354 23.62 0 2.689-0.234 5.379-0.702 8.301" fill="#231F20"/>
<path d="m225.57 80.993c-6.313-6.313-9.471-14.382-9.471-24.32 0-9.94 3.158-18.009 9.588-24.322 6.431-6.315 14.734-9.472 25.023-9.472 13.447 0 25.256 6.548 30.752 18.826l-16.487 8.653c-3.274-5.496-7.834-8.302-13.798-8.302-4.326 0-7.834 1.403-10.64 4.209-2.69 2.807-4.092 6.315-4.092 10.408 0 8.535 6.196 14.849 14.499 14.849 5.963 0 11.459-3.274 13.797-8.301l16.487 9.821c-5.612 10.758-17.188 17.423-30.869 17.423-10.173 0-18.357-3.158-24.789-9.472" fill="#231F20"/>
<g transform="translate(93 .6978)">
<mask id="b" fill="white">
<use xlink:href="#a"/>
</mask>
<path d="m29.801 71.175c-5.496 0-8.185-3.391-8.185-10.29v-59.984h-1e-3l-20.461 4.509v18.409l-0.234 17.071v22.451c0 17.772 7.951 26.659 23.97 26.659 5.453 0 10.488-0.894 15.083-2.646v-19.102c-3.741 1.987-7.132 2.923-10.172 2.923" fill="#231F20" mask="url(#b)"/>
</g>
<path d="m355.24 49.423c0-8.537-2.456-15.201-7.25-19.761-4.794-4.561-10.757-6.899-17.656-6.899-9.354 0-17.072 4.794-20.229 10.524v-33.287l-20.111 4.431v84.631h20.579v-33.676c0-8.302 5.146-13.797 12.629-13.797 7.016 0 11.342 4.911 11.342 13.33v11.566l20.696-4.56v-12.502z" fill="#231F20"/>
<path d="m355.24 78.53c0 5.816-4.715 10.531-10.53 10.531-5.816 0-10.531-4.715-10.531-10.531 0-5.815 4.715-10.53 10.531-10.53 5.815 0 10.53 4.715 10.53 10.53" fill="#3A58A7"/>
<polygon points="43.367 86.323 51.304 56.703 21.683 64.639" fill="#3A58A7"/>
<polygon points="0 42.956 21.684 64.64 29.621 35.019" fill="#3A58A7"/>
<polygon points="37.557 5.399 29.62 35.02 59.241 27.083" fill="#3A58A7"/>
<polygon points="59.241 27.083 51.304 56.704 80.925 48.767" fill="#3A58A7"/>
<polygon points="29.621 35.02 21.684 64.64 51.305 56.704 59.241 27.083" fill="#292664"/>
<polygon points="88.075 39.94 114.25 35.666 88.003 31.428" fill="#3A58A7"/>
<polygon points="87.931 22.915 88.003 31.428 114.18 27.154" fill="#3A58A7"/>
<polygon points="140.43 31.392 114.25 35.665 140.5 39.904" fill="#3A58A7"/>
<polygon points="140.36 22.879 114.18 27.153 140.43 31.392" fill="#3A58A7"/>
<polygon points="114.18 27.153 88.003 31.427 114.25 35.665 140.43 31.392" fill="#292664"/>
</g>
</svg>
